<svg xmlns="http://www.w3.org/2000/svg" xmlns:xlink="http://www.w3.org/1999/xlink" width="500" zoomAndPan="magnify" viewBox="0 0 375 374.999991" height="500" preserveAspectRatio="xMidYMid meet" version="1.0"><defs><clipPath id="89853e712b"><path d="M 6 59.242188 L 365 59.242188 L 365 314 L 6 314 Z M 6 59.242188 " clip-rule="nonzero"/></clipPath></defs><g clip-path="url(#89853e712b)"><path fill="#6e1d32" d="M 288.90625 243.433594 C 284.027344 236.695312 283.496094 234.832031 281.101562 228.359375 C 325.617188 228.359375 364.367188 190.230469 364.367188 143.234375 C 364.367188 96.238281 326.238281 58.109375 279.238281 58.109375 C 232.242188 58.109375 194.113281 96.238281 194.113281 143.234375 C 194.113281 153.785156 194.648438 162.832031 196.6875 174.976562 C 199.699219 193.421875 205.554688 211.421875 214.6875 228.359375 C 239.515625 273.9375 284.828125 304.527344 354.789062 313.394531 C 364.277344 314.636719 368.179688 301.515625 359.578125 297.347656 C 326.238281 281.121094 301.851562 261.609375 288.90625 243.433594 Z M 347.339844 143.234375 C 347.339844 180.832031 316.835938 211.335938 279.238281 211.335938 C 258.84375 211.335938 260.265625 232.703125 275.074219 253.363281 C 282.34375 263.652344 292.71875 274.113281 305.664062 284.132812 C 290.234375 278.992188 251.839844 260.992188 229.671875 220.289062 C 221.425781 205.125 216.195312 188.8125 213.445312 172.230469 C 211.582031 161.144531 211.140625 152.898438 211.140625 143.234375 C 211.140625 105.636719 241.644531 75.132812 279.238281 75.132812 C 316.835938 75.132812 347.339844 105.636719 347.339844 143.234375 Z M 101.628906 243.433594 C 96.753906 236.695312 96.21875 234.832031 93.824219 228.359375 C 138.339844 228.359375 177.089844 190.230469 177.089844 143.234375 C 177.089844 96.238281 138.960938 58.109375 91.964844 58.109375 C 44.96875 58.109375 6.839844 96.238281 6.839844 143.234375 C 6.839844 153.785156 7.371094 162.832031 9.410156 174.976562 C 12.425781 193.421875 18.277344 211.421875 27.410156 228.359375 C 52.238281 273.9375 97.550781 304.527344 167.511719 313.394531 C 177 314.636719 180.902344 301.515625 172.300781 297.347656 C 138.960938 281.121094 114.574219 261.609375 101.628906 243.433594 Z M 160.0625 143.234375 C 160.0625 180.832031 129.5625 211.335938 91.964844 211.335938 C 71.570312 211.335938 72.988281 232.703125 87.796875 253.363281 C 95.066406 263.652344 105.441406 274.113281 118.386719 284.132812 C 102.960938 278.992188 64.5625 260.992188 42.394531 220.289062 C 34.148438 205.125 28.917969 188.8125 26.167969 172.230469 C 24.308594 161.144531 23.863281 152.898438 23.863281 143.234375 C 23.863281 105.636719 54.367188 75.132812 91.964844 75.132812 C 129.5625 75.132812 160.0625 105.636719 160.0625 143.234375 Z M 160.0625 143.234375 " fill-opacity="1" fill-rule="nonzero"/></g></svg>