<svg xmlns="http://www.w3.org/2000/svg" xmlns:xlink="http://www.w3.org/1999/xlink" width="500" zoomAndPan="magnify" viewBox="0 0 375 374.999991" height="500" preserveAspectRatio="xMidYMid meet" version="1.0"><defs><clipPath id="89f671e464"><path d="M 12 65 L 365 65 L 365 315.746094 L 12 315.746094 Z M 12 65 " clip-rule="nonzero"/></clipPath></defs><g clip-path="url(#89f671e464)"><path fill="#6e1d32" d="M 86.671875 134.367188 C 91.472656 141.003906 91.996094 142.835938 94.355469 149.210938 C 50.519531 149.210938 12.363281 186.757812 12.363281 233.039062 C 12.363281 279.316406 49.910156 316.863281 96.1875 316.863281 C 142.46875 316.863281 180.015625 279.316406 180.015625 233.039062 C 180.015625 222.648438 179.492188 213.738281 177.484375 201.777344 C 174.515625 183.613281 168.75 165.890625 159.757812 149.210938 C 135.308594 104.328125 90.6875 74.203125 21.792969 65.472656 C 12.449219 64.25 8.605469 77.171875 17.078125 81.277344 C 49.910156 97.257812 73.921875 116.464844 86.671875 134.367188 Z M 29.128906 233.039062 C 29.128906 196.015625 59.164062 165.976562 96.1875 165.976562 C 116.273438 165.976562 114.875 144.933594 100.292969 124.585938 C 93.132812 114.457031 82.914062 104.152344 70.167969 94.289062 C 85.359375 99.351562 123.171875 117.078125 145 157.15625 C 153.121094 172.089844 158.273438 188.15625 160.980469 204.484375 C 162.8125 215.398438 163.25 223.519531 163.25 233.039062 C 163.25 270.0625 133.210938 300.097656 96.1875 300.097656 C 59.164062 300.097656 29.128906 270.0625 29.128906 233.039062 Z M 271.089844 134.367188 C 275.890625 141.003906 276.414062 142.835938 278.773438 149.210938 C 234.9375 149.210938 196.78125 186.757812 196.78125 233.039062 C 196.78125 279.316406 234.328125 316.863281 280.605469 316.863281 C 326.886719 316.863281 364.433594 279.316406 364.433594 233.039062 C 364.433594 222.648438 363.910156 213.738281 361.902344 201.777344 C 358.933594 183.613281 353.167969 165.890625 344.175781 149.210938 C 319.726562 104.328125 275.105469 74.203125 206.210938 65.472656 C 196.867188 64.25 193.027344 77.171875 201.496094 81.277344 C 234.328125 97.257812 258.339844 116.464844 271.089844 134.367188 Z M 213.546875 233.039062 C 213.546875 196.015625 243.582031 165.976562 280.605469 165.976562 C 300.691406 165.976562 299.292969 144.933594 284.710938 124.585938 C 277.550781 114.457031 267.335938 104.152344 254.585938 94.289062 C 269.78125 99.351562 307.589844 117.078125 329.417969 157.15625 C 337.539062 172.089844 342.691406 188.15625 345.398438 204.484375 C 347.230469 215.398438 347.667969 223.519531 347.667969 233.039062 C 347.667969 270.0625 317.628906 300.097656 280.605469 300.097656 C 243.582031 300.097656 213.546875 270.0625 213.546875 233.039062 Z M 213.546875 233.039062 " fill-opacity="1" fill-rule="nonzero"/></g></svg>